<?xml version="1.0" encoding="UTF-8"?>
<!-- Generator: Adobe Illustrator 23.0.6, SVG Export Plug-In . SVG Version: 6.00 Build 0)  -->
<svg xmlns="http://www.w3.org/2000/svg" xmlns:xlink="http://www.w3.org/1999/xlink" id="Layer_1" x="0px" y="0px" viewBox="0 0 172.43 66.97" style="enable-background:new 0 0 172.43 66.97;" xml:space="preserve">
<style type="text/css">
	.st0{fill:#F69127;}
	.st1{fill:none;stroke:#F69127;stroke-width:0.5;stroke-miterlimit:10;}
	.st2{fill:#959595;}
	.st3{fill:none;stroke:#959595;stroke-width:0.5;stroke-miterlimit:10;}
</style>
<g>
	<path class="st0" d="M63.14,39.36L58.2,19.99h3.92l1.92,8.8c0.51,2.36,0.99,4.83,1.32,6.75h0.06c0.33-2.04,0.9-4.34,1.47-6.78   l2.18-8.77h3.86l2.01,8.91c0.51,2.3,0.93,4.46,1.23,6.55h0.06c0.36-2.13,0.84-4.34,1.38-6.7l2.1-8.77h3.74l-5.42,19.37h-3.95   l-2.1-9.11c-0.51-2.21-0.87-4.05-1.11-6.15h-0.06c-0.36,2.07-0.75,3.94-1.35,6.15l-2.34,9.11H63.14z"></path>
	<path class="st1" d="M63.14,39.36L58.2,19.99h3.92l1.92,8.8c0.51,2.36,0.99,4.83,1.32,6.75h0.06c0.33-2.04,0.9-4.34,1.47-6.78   l2.18-8.77h3.86l2.01,8.91c0.51,2.3,0.93,4.46,1.23,6.55h0.06c0.36-2.13,0.84-4.34,1.38-6.7l2.1-8.77h3.74l-5.42,19.37h-3.95   l-2.1-9.11c-0.51-2.21-0.87-4.05-1.11-6.15h-0.06c-0.36,2.07-0.75,3.94-1.35,6.15l-2.34,9.11H63.14z"></path>
	<path class="st0" d="M88.3,33.87l-1.74,5.49h-3.8l6.47-19.37h4.7l6.56,19.37h-3.95l-1.83-5.49H88.3z M94.07,31.2l-1.59-4.77   c-0.39-1.18-0.72-2.5-1.02-3.62h-0.06c-0.3,1.12-0.6,2.47-0.96,3.62L88.9,31.2H94.07z"></path>
	<path class="st1" d="M88.3,33.87l-1.74,5.49h-3.8l6.47-19.37h4.7l6.56,19.37h-3.95l-1.83-5.49H88.3z M94.07,31.2l-1.59-4.77   c-0.39-1.18-0.72-2.5-1.02-3.62h-0.06c-0.3,1.12-0.6,2.47-0.96,3.62L88.9,31.2H94.07z"></path>
	<path class="st0" d="M106.21,39.36l-6.53-19.37h4.01l2.76,8.8c0.78,2.44,1.44,4.71,1.98,7.07h0.06c0.54-2.3,1.26-4.66,2.07-7.01   l2.93-8.85h3.92l-6.98,19.37H106.21z"></path>
	<path class="st1" d="M106.21,39.36l-6.53-19.37h4.01l2.76,8.8c0.78,2.44,1.44,4.71,1.98,7.07h0.06c0.54-2.3,1.26-4.66,2.07-7.01   l2.93-8.85h3.92l-6.98,19.37H106.21z"></path>
	<rect x="119.59" y="19.99" class="st0" width="3.68" height="19.37"></rect>
	<rect x="119.59" y="19.99" class="st1" width="3.68" height="19.37"></rect>
	<path class="st0" d="M141.96,38.79c-0.87,0.43-2.79,0.86-5.21,0.86c-6.41,0-10.3-3.85-10.3-9.74c0-6.38,4.61-10.23,10.78-10.23   c2.43,0,4.16,0.49,4.91,0.86l-0.81,2.82c-0.96-0.4-2.28-0.75-3.95-0.75c-4.1,0-7.07,2.47-7.07,7.13c0,4.25,2.6,6.98,7.04,6.98   c1.5,0,3.05-0.29,4.01-0.72L141.96,38.79z"></path>
	<path class="st1" d="M141.96,38.79c-0.87,0.43-2.79,0.86-5.21,0.86c-6.41,0-10.3-3.85-10.3-9.74c0-6.38,4.61-10.23,10.78-10.23   c2.43,0,4.16,0.49,4.91,0.86l-0.81,2.82c-0.96-0.4-2.28-0.75-3.95-0.75c-4.1,0-7.07,2.47-7.07,7.13c0,4.25,2.6,6.98,7.04,6.98   c1.5,0,3.05-0.29,4.01-0.72L141.96,38.79z"></path>
	<polygon class="st0" points="145.11,19.99 148.79,19.99 148.79,36.4 157.08,36.4 157.08,39.36 145.11,39.36  "></polygon>
	<polygon class="st1" points="145.11,19.99 148.79,19.99 148.79,36.4 157.08,36.4 157.08,39.36 145.11,39.36  "></polygon>
	<polygon class="st0" points="171.16,30.77 163.55,30.77 163.55,36.46 172.06,36.46 172.06,39.36 159.87,39.36 159.87,19.99    171.61,19.99 171.61,22.89 163.55,22.89 163.55,27.89 171.16,27.89  "></polygon>
	<polygon class="st1" points="171.16,30.77 163.55,30.77 163.55,36.46 172.06,36.46 172.06,39.36 159.87,39.36 159.87,19.99    171.61,19.99 171.61,22.89 163.55,22.89 163.55,27.89 171.16,27.89  "></polygon>
	<polygon class="st0" points="22.51,31.89 27.79,26.56 33.36,31.89 31.31,31.89 31.31,64.35 27.94,66.97 24.62,64.32 24.62,31.89     "></polygon>
	<polygon class="st0" points="2.52,8.22 5.32,6.36 8.11,8.22 8.11,11.84 5.32,13.19 2.52,11.64  "></polygon>
	<polygon class="st1" points="2.52,8.22 5.32,6.36 8.11,8.22 8.11,11.84 5.32,13.19 2.52,11.64  "></polygon>
	<polygon class="st0" points="13.29,4.45 14.88,3.39 16.47,4.45 16.47,6.5 14.88,7.27 13.29,6.38  "></polygon>
	<polygon class="st1" points="13.29,4.45 14.88,3.39 16.47,4.45 16.47,6.5 14.88,7.27 13.29,6.38  "></polygon>
	<path class="st2" d="M27.79,2.05l-13.14,8.23v3.18l-3.18,1.87l-2.43-1.87l-8.79,5.05v31.99l20.02,11.22V38.54l2.24,0l-5.46-5.63   l-5.58,5.63h2.06v12.53L6.8,46.58v-24.7L27.75,10.1l21.51,11.97v24.88l-7.3,3.93V25.62h2.62l-5.61-5.24l-5.42,5.24h2.24v36.11   l19.46-11.22V18.55L27.79,2.05z M9.51,18.01l-1.59,0.76l-1.59-0.88v-1.94l1.59-1.06l1.59,1.06V18.01z M21.9,12.37l-2.13,1.02   l-2.13-1.18v-2.6l2.13-1.42l2.13,1.42V12.37z"></path>
	<path class="st3" d="M27.79,2.05l-13.14,8.23v3.18l-3.18,1.87l-2.43-1.87l-8.79,5.05v31.99l20.02,11.22V38.54l2.24,0l-5.46-5.63   l-5.58,5.63h2.06v12.53L6.8,46.58v-24.7L27.75,10.1l21.51,11.97v24.88l-7.3,3.93V25.62h2.62l-5.61-5.24l-5.42,5.24h2.24v36.11   l19.46-11.22V18.55L27.79,2.05z M9.51,18.01l-1.59,0.76l-1.59-0.88v-1.94l1.59-1.06l1.59,1.06V18.01z M21.9,12.37l-2.13,1.02   l-2.13-1.18v-2.6l2.13-1.42l2.13,1.42V12.37z"></path>
	<polygon class="st0" points="6.55,1.66 8.6,0.3 10.64,1.66 10.64,4.32 8.6,5.3 6.55,4.17  "></polygon>
	<polygon class="st1" points="6.55,1.66 8.6,0.3 10.64,1.66 10.64,4.32 8.6,5.3 6.55,4.17  "></polygon>
	<path class="st2" d="M62.56,41.63c0.88-0.11,1.91-0.2,3.04-0.2c2.04,0,3.49,0.4,4.46,1.17c1,0.78,1.57,1.9,1.57,3.44   c0,1.56-0.57,2.83-1.58,3.71c-1.04,0.89-2.74,1.37-4.88,1.37c-1.03,0-1.86-0.03-2.6-0.11V41.63z M63.99,50.07   c0.36,0.06,0.88,0.06,1.44,0.06c3.04,0.01,4.69-1.47,4.69-4.05c0.02-2.28-1.45-3.68-4.46-3.68c-0.73,0-1.29,0.06-1.67,0.13V50.07z"></path>
	<path class="st2" d="M79.92,49.39c0,0.59,0.03,1.17,0.11,1.64h-1.29l-0.13-0.86h-0.05c-0.43,0.54-1.29,1.02-2.42,1.02   c-1.6,0-2.42-0.98-2.42-1.97c0-1.66,1.7-2.56,4.75-2.55v-0.14c0-0.57-0.18-1.6-1.8-1.59c-0.75,0-1.52,0.18-2.07,0.51l-0.33-0.84   c0.65-0.35,1.62-0.59,2.61-0.59c2.43,0,3.02,1.43,3.02,2.8V49.39z M78.51,47.54c-1.57-0.03-3.35,0.21-3.35,1.54   c0,0.82,0.62,1.19,1.34,1.19c1.04,0,1.71-0.57,1.94-1.15c0.05-0.13,0.07-0.27,0.07-0.4V47.54z"></path>
	<path class="st2" d="M84.87,42.55v1.64h2.06v0.95h-2.06v3.69c0,0.85,0.28,1.33,1.08,1.33c0.39,0,0.62-0.03,0.83-0.09l0.07,0.95   c-0.28,0.09-0.72,0.17-1.27,0.17c-0.67,0-1.21-0.2-1.55-0.52c-0.39-0.38-0.56-0.99-0.56-1.8v-3.73h-1.22v-0.95h1.22v-1.26   L84.87,42.55z"></path>
	<path class="st2" d="M95.09,49.39c0,0.59,0.03,1.17,0.11,1.64h-1.29l-0.13-0.86h-0.05c-0.42,0.54-1.29,1.02-2.42,1.02   c-1.6,0-2.42-0.98-2.42-1.97c0-1.66,1.7-2.56,4.75-2.55v-0.14c0-0.57-0.18-1.6-1.8-1.59c-0.75,0-1.52,0.18-2.07,0.51l-0.33-0.84   c0.65-0.35,1.62-0.59,2.61-0.59c2.43,0,3.02,1.43,3.02,2.8V49.39z M93.68,47.54c-1.57-0.03-3.35,0.21-3.35,1.54   c0,0.82,0.62,1.19,1.34,1.19c1.04,0,1.71-0.57,1.94-1.15c0.05-0.13,0.07-0.27,0.07-0.4V47.54z"></path>
	<path class="st2" d="M102.68,49.53c0.64,0.35,1.55,0.62,2.53,0.62c1.45,0,2.3-0.65,2.3-1.63c0-0.88-0.59-1.4-2.07-1.88   c-1.8-0.57-2.91-1.39-2.91-2.72c0-1.48,1.42-2.59,3.56-2.59c1.11,0,1.94,0.23,2.42,0.47l-0.39,1.01c-0.34-0.18-1.08-0.45-2.07-0.45   c-1.5,0-2.07,0.78-2.07,1.43c0,0.89,0.67,1.33,2.19,1.84c1.86,0.64,2.79,1.4,2.79,2.8c0,1.47-1.24,2.76-3.84,2.76   c-1.06,0-2.22-0.28-2.81-0.62L102.68,49.53z"></path>
	<path class="st2" d="M115.13,51.19c-2.12,0-3.79-1.36-3.79-3.52c0-2.29,1.75-3.64,3.92-3.64c2.27,0,3.81,1.43,3.81,3.51   c0,2.55-2.04,3.65-3.92,3.65H115.13z M115.18,50.26c1.37,0,2.4-1.12,2.4-2.67c0-1.16-0.67-2.62-2.37-2.62   c-1.68,0-2.42,1.36-2.42,2.66c0,1.5,0.98,2.63,2.37,2.63H115.18z"></path>
	<rect x="121.86" y="40.99" class="st2" width="1.44" height="10.04"></rect>
	<path class="st2" d="M133.27,49.17c0,0.71,0.02,1.33,0.06,1.87h-1.27l-0.08-1.12h-0.03c-0.36,0.55-1.21,1.27-2.61,1.27   c-1.24,0-2.73-0.61-2.73-3v-4h1.44v3.78c0,1.3,0.47,2.19,1.76,2.19c0.96,0,1.63-0.58,1.89-1.15c0.08-0.17,0.13-0.4,0.13-0.64v-4.19   h1.44V49.17z"></path>
	<path class="st2" d="M138.37,42.55v1.64h2.06v0.95h-2.06v3.69c0,0.85,0.28,1.33,1.08,1.33c0.39,0,0.62-0.03,0.83-0.09l0.07,0.95   c-0.28,0.09-0.72,0.17-1.27,0.17c-0.67,0-1.21-0.2-1.55-0.52c-0.39-0.38-0.55-0.99-0.55-1.8v-3.73h-1.23v-0.95h1.23v-1.26   L138.37,42.55z"></path>
	<path class="st2" d="M143.71,42.93c-0.54,0-0.9-0.37-0.9-0.81c0-0.44,0.38-0.79,0.93-0.79c0.55,0,0.91,0.35,0.91,0.79   c0,0.44-0.36,0.81-0.93,0.81H143.71z M143.02,44.19h1.44v6.85h-1.44V44.19z"></path>
	<path class="st2" d="M151.04,51.19c-2.12,0-3.79-1.36-3.79-3.52c0-2.29,1.75-3.64,3.92-3.64c2.27,0,3.8,1.43,3.8,3.51   c0,2.55-2.04,3.65-3.92,3.65H151.04z M151.09,50.26c1.37,0,2.4-1.12,2.4-2.67c0-1.16-0.67-2.62-2.37-2.62   c-1.68,0-2.42,1.36-2.42,2.66c0,1.5,0.98,2.63,2.37,2.63H151.09z"></path>
	<path class="st2" d="M157.77,46.04c0-0.72-0.02-1.29-0.07-1.85h1.27l0.08,1.12h0.03c0.39-0.64,1.31-1.27,2.61-1.27   c1.09,0,2.79,0.57,2.79,2.91v4.09h-1.44v-3.95c0-1.1-0.47-2.04-1.83-2.04c-0.93,0-1.67,0.58-1.93,1.27   c-0.07,0.16-0.1,0.38-0.1,0.58v4.13h-1.44V46.04z"></path>
	<path class="st2" d="M167.62,49.78c0.44,0.23,1.19,0.48,1.91,0.48c1.03,0,1.52-0.44,1.52-1.02c0-0.59-0.41-0.92-1.45-1.26   c-1.44-0.45-2.11-1.12-2.11-1.94c0-1.1,1.04-2.01,2.73-2.01c0.8,0,1.5,0.18,1.93,0.43l-0.34,0.89c-0.31-0.16-0.88-0.4-1.62-0.4   c-0.85,0-1.31,0.42-1.31,0.93c0,0.58,0.46,0.84,1.49,1.17c1.36,0.44,2.07,1.03,2.07,2.07c0,1.22-1.1,2.07-2.94,2.07   c-0.87,0-1.67-0.2-2.22-0.48L167.62,49.78z"></path>
</g>
</svg>
